HIERARCHY
ROOT Hips
{
	OFFSET 0.000000 0.000000 0.000000 
	CHANNELS 6 Xposition Yposition Zposition Zrotation Yrotation Xrotation
	JOINT LeftUpLeg
	{
		OFFSET 1.363060 -1.794630 0.839290 
		CHANNELS 3 Zrotation Yrotation Xrotation
		JOINT LeftLeg
		{
			OFFSET 2.448110 -6.726130 0.000000 
			CHANNELS 3 Zrotation Yrotation Xrotation
			JOINT LeftFoot
			{
				OFFSET 2.562200 -7.039590 0.000000 
				CHANNELS 3 Zrotation Yrotation Xrotation
				JOINT LeftToeBase
				{
					OFFSET 0.157640 -0.433110 2.322550 
					CHANNELS 3 Zrotation Yrotation Xrotation
					End Site
					{
						OFFSET 0.000000 0.000000 0.000000 
					}
				}
			}
		}
	}
	JOINT RightUpLeg
	{
		OFFSET -1.305520 -1.794630 0.839290 
		CHANNELS 3 Zrotation Yrotation Xrotation
		JOINT RightLeg
		{
			OFFSET -2.542530 -6.985550 0.000000 
			CHANNELS 3 Zrotation Yrotation Xrotation
			JOINT RightFoot
			{
				OFFSET -2.568260 -7.056230 0.000000 
				CHANNELS 3 Zrotation Yrotation Xrotation
				JOINT RightToeBase
				{
					OFFSET -0.164730 -0.452590 2.363150 
					CHANNELS 3 Zrotation Yrotation Xrotation
					End Site
					{
						OFFSET 0.000000 0.000000 0.000000 
					}
				}
			}
		}
	}
	JOINT Spine
	{
		OFFSET 0.028270 2.035590 -0.193380 
		CHANNELS 3 Zrotation Yrotation Xrotation
		JOINT Spine1
		{
			OFFSET 0.056720 2.048850 -0.042750 
			CHANNELS 3 Zrotation Yrotation Xrotation
			JOINT Neck1
			{
				OFFSET -0.054170 1.746240 0.172020 
				CHANNELS 3 Zrotation Yrotation Xrotation
				JOINT Head
				{
					OFFSET 0.104070 1.761360 -0.123970 
					CHANNELS 3 Zrotation Yrotation Xrotation
					End Site
					{
						OFFSET 0.000000 0.000000 0.000000 
					}
				}
			}
			JOINT LeftArm
			{
				OFFSET 3.362410 1.200890 -0.311210 
				CHANNELS 3 Zrotation Yrotation Xrotation
				JOINT LeftForeArm
				{
					OFFSET 4.983000 -0.000000 -0.000000 
					CHANNELS 3 Zrotation Yrotation Xrotation
					JOINT LeftHand
					{
						OFFSET 3.483560 -0.000000 -0.000000 
						CHANNELS 3 Zrotation Yrotation Xrotation
						JOINT LeftHandIndex1
						{
							OFFSET 0.715260 -0.000000 -0.000000 
							CHANNELS 3 Zrotation Yrotation Xrotation
							End Site
							{
								OFFSET 0.000000 0.000000 0.000000 
							}
						}
					}
				}
			}
			JOINT RightArm
			{
				OFFSET -3.136600 1.374050 -0.404650 
				CHANNELS 3 Zrotation Yrotation Xrotation
				JOINT RightForeArm
				{
					OFFSET -5.241900 -0.000000 -0.000000 
					CHANNELS 3 Zrotation Yrotation Xrotation
					JOINT RightHand
					{
						OFFSET -3.444170 -0.000000 -0.000000 
						CHANNELS 3 Zrotation Yrotation Xrotation
						JOINT RightHandIndex1
						{
							OFFSET -0.622530 -0.000000 -0.000000 
							CHANNELS 3 Zrotation Yrotation Xrotation
							End Site
							{
								OFFSET 0.000000 0.000000 0.000000 
							}
						}
					}
				}
			}
		}
	}
}
MOTION
Frames: 13
Frame Time: 0.041667
13.909140 26.132384 48.490897 -173.332624 -1.185971 -175.633306 -9.500314 -6.291971 -28.928080 4.582164 12.248049 37.486613 2.751038 -11.037727 -33.000155 0.164900 -2.615800 -7.211000 32.259925 15.427612 -23.553696 -3.848698 -11.218476 33.231929 -1.109043 -22.098774 -34.557371 -0.200900 -2.886200 7.962200 4.950583 -0.824684 15.407771 4.808196 -1.728278 -3.453243 18.414168 -4.806503 -23.188149 7.252300 1.560000 -1.131000 -75.268856 -62.774371 28.853174 16.843476 -28.154926 -4.016649 -0.276083 -0.144968 30.029848 -7.125000 0.000000 0.000000 71.916451 62.611622 46.934588 -51.754988 54.859237 -27.396416 -0.035893 -0.252739 7.675280 7.125000 0.000000 0.000000 
13.883806 26.158510 48.420833 -173.499404 -1.664885 -175.591118 -9.774665 -6.494910 -28.809062 4.589689 12.257986 37.528155 2.690454 -11.443277 -32.774577 0.166100 -2.625800 -7.238700 32.026576 14.941274 -23.620166 -3.885427 -11.272477 33.426486 -1.055673 -22.038545 -34.143546 -0.314000 -3.602400 9.960700 4.999765 -1.014496 15.350377 4.825730 -1.796566 -3.354318 17.890064 -4.936160 -22.267778 7.011000 1.454900 -0.819900 -76.093069 -62.551007 29.830602 16.599553 -27.803056 -3.904475 -0.267795 -0.151676 30.096030 -7.125000 0.000000 0.000000 70.802766 62.794501 45.893502 -56.331913 56.431092 -31.044335 -0.030120 -0.245622 6.982078 7.125000 0.000000 0.000000 
13.888358 26.174442 48.345821 -173.609926 -0.435680 -175.937067 -9.949865 -5.190971 -28.133803 4.606424 12.281056 37.626615 2.677150 -11.796425 -32.798864 0.139500 -2.407400 -6.632900 32.165832 15.524348 -22.599759 -3.914191 -11.321349 33.595861 -1.116941 -21.421565 -33.822394 -0.444000 -4.275600 11.853200 5.115463 -0.325079 15.506337 5.286166 -1.505074 -3.222436 17.225099 -4.988784 -22.162005 6.719100 1.361900 -0.848100 -76.985692 -62.402425 30.891310 16.311621 -27.386371 -3.773764 -0.257872 -0.159989 30.271847 -7.125000 0.000000 0.000000 69.699361 63.257464 44.965520 -60.838760 57.715386 -34.690950 -0.037245 -0.241891 6.142787 7.125000 0.000000 0.000000 
13.854514 26.201063 48.279517 -173.733192 -1.264757 -175.998490 -10.183666 -6.000754 -27.803867 4.635172 12.313369 37.740194 2.650495 -11.637792 -32.609033 0.144200 -2.447300 -6.743600 31.942492 14.753679 -22.660543 -3.950018 -11.365129 33.756446 -1.215449 -21.017112 -33.970404 -0.572400 -4.845100 13.467300 5.175664 -0.689086 15.433340 5.179004 -1.655158 -3.146056 16.487012 -4.949164 -22.408703 6.414700 1.324400 -1.019500 -77.664580 -61.918696 32.011653 16.274188 -27.285425 -3.753548 -0.239622 -0.164344 30.195487 -7.125000 0.000000 0.000000 68.597851 63.929797 43.461007 -65.663457 58.839639 -38.627920 -0.011551 -0.248646 6.667729 7.125000 0.000000 0.000000 
13.846399 26.217688 48.208958 -173.561130 -0.595057 -176.177387 -10.061925 -5.226344 -27.430608 4.662455 12.350578 37.877376 2.687215 -11.469606 -32.765587 0.170500 -2.659700 -7.332800 32.264232 14.910107 -22.092764 -3.975619 -11.407572 33.907010 -1.227750 -20.671629 -33.677215 -0.666200 -5.220000 14.537100 5.281229 -0.312949 15.466043 5.263639 -1.480867 -3.074256 15.869976 -4.938525 -22.308885 6.157400 1.291000 -1.037100 -78.088409 -61.289214 32.979221 16.341935 -27.323553 -3.778447 -0.220221 -0.168395 29.888713 -7.125000 0.000000 0.000000 67.525222 64.735698 42.241638 -70.676860 59.754010 -42.761225 -0.007731 -0.247002 6.422550 7.125000 0.000000 0.000000 
13.839571 26.226298 48.137310 -173.662409 0.277703 -176.489225 -10.261490 -4.243645 -26.866378 4.682167 12.379562 37.981030 2.737843 -11.468240 -33.029429 0.204800 -2.913500 -8.038100 32.350776 15.052229 -21.390963 -4.011695 -11.463672 34.113971 -1.153583 -20.594861 -33.121399 -0.745600 -5.515800 15.385700 4.403677 1.360764 15.966197 5.434095 2.087727 -2.583502 15.326622 -4.984512 -21.814675 5.926700 1.215900 -0.900700 -78.486587 -60.935335 33.866472 16.247851 -27.159521 -3.733281 -0.209083 -0.172031 29.491891 -7.125000 0.000000 0.000000 66.469422 65.743544 41.118091 -75.834112 60.445282 -47.036630 -0.003379 -0.247754 5.869775 7.125000 0.000000 0.000000 
13.798403 26.246387 48.075559 -174.144233 -0.913371 -176.274976 -10.937529 -5.360467 -26.860873 4.699219 12.391841 38.032188 2.681640 -11.659512 -32.760345 0.217200 -3.000400 -8.279800 31.611559 14.063035 -21.983990 -4.063806 -11.531699 34.360311 -1.098844 -20.826657 -32.996530 -0.841400 -5.851000 16.352600 5.163745 -0.510901 15.453430 5.273251 -1.560199 -2.763103 14.585035 -4.836527 -21.639911 5.634900 1.235200 -0.910900 -78.992450 -60.571801 34.719174 16.129883 -26.959725 -3.677192 -0.200587 -0.173077 29.295391 -7.125000 0.000000 0.000000 65.206947 66.963604 39.289660 -80.807679 60.897380 -51.172444 0.001448 -0.248124 6.772391 7.125000 0.000000 0.000000 
13.796325 26.254205 48.020339 -174.647331 0.093590 -176.500500 -11.575884 -4.357680 -26.354817 4.705596 12.397955 38.054537 2.679398 -11.732956 -32.760602 0.213700 -2.975800 -8.211400 31.239126 14.475528 -21.327148 -4.106578 -11.591723 34.575434 -1.114452 -20.772053 -33.035186 -0.889900 -6.013100 16.822500 4.225134 1.213264 15.794608 5.688843 1.954973 -2.531857 13.727148 -4.566034 -21.764399 5.298400 1.320800 -1.050400 -79.388549 -59.952440 35.397804 16.182603 -26.984735 -3.694505 -0.188744 -0.173617 29.088292 -7.125000 0.000000 0.000000 63.600097 68.417299 37.571075 -85.675940 61.126022 -55.240285 -0.000946 -0.257117 6.343591 7.125000 0.000000 0.000000 
13.773960 26.266179 47.960665 -175.271838 -0.152463 -176.728183 -12.411680 -4.586826 -25.794129 4.732158 12.422392 38.145294 2.696882 -11.575056 -32.788411 0.208600 -2.940700 -8.113800 30.576561 14.021137 -21.004224 -4.132908 -11.617018 34.672760 -1.179024 -20.780280 -33.438412 -0.898300 -6.040600 16.902100 4.062136 1.049335 15.766875 5.790302 1.853128 -2.484660 13.230007 -4.440803 -21.445984 5.107300 1.335300 -0.982200 -79.708565 -59.347058 36.093899 16.260066 -27.044259 -3.724088 -0.174838 -0.172074 28.689928 -7.125000 0.000000 0.000000 62.393578 70.257363 35.389940 -89.751098 61.182397 -58.623145 0.017544 -0.256948 8.935234 7.125000 0.000000 0.000000 
13.760699 26.277757 47.886643 -175.118399 0.398214 -176.701404 -12.294547 -4.052766 -25.653466 4.766533 12.469700 38.323787 2.700687 -11.636919 -32.825264 0.167100 -2.633900 -7.261000 30.778213 14.302169 -20.582462 -4.128069 -11.611178 34.652070 -1.200825 -20.705059 -33.503802 -0.915600 -6.097000 17.066200 4.099543 1.289701 15.775973 5.730440 1.943472 -2.189571 13.080709 -4.394000 -20.860030 5.066800 1.324800 -0.777300 -80.251999 -58.965584 36.868754 16.149855 -26.846652 -3.668008 -0.169580 -0.172742 28.384315 -7.125000 0.000000 0.000000 62.408874 72.456663 35.353700 -92.258528 61.185823 -60.731050 -0.011179 -0.280683 8.502621 7.125000 0.000000 0.000000 
13.741797 26.282607 47.799062 -173.849692 0.643557 -176.575906 -10.849138 -3.479282 -25.840707 4.801061 12.536289 38.571336 2.645066 -12.124917 -32.694328 0.143400 -2.440900 -6.725700 32.173556 14.573940 -20.171652 -4.093639 -11.570846 34.508086 -1.191692 -20.747797 -33.537046 -0.951700 -6.212700 17.402800 4.422100 1.389328 15.880914 5.249107 1.998411 -1.596092 12.801888 -4.382154 -20.085385 4.959400 1.281800 -0.518500 -80.552834 -55.757874 36.864507 17.802056 -28.888822 -4.378785 -0.158416 -0.155198 28.973366 -7.125000 0.000000 0.000000 57.607442 73.819687 30.294278 -97.970871 60.740707 -65.616132 -0.021484 -0.281915 8.144147 7.125000 0.000000 0.000000 
13.726953 26.295966 47.731769 -173.885632 0.930349 -176.586720 -10.960212 -3.149001 -25.691835 4.847465 12.596704 38.797796 2.654344 -12.167678 -32.747512 0.133600 -2.355900 -6.490200 32.147177 14.600017 -19.755372 -4.070208 -11.534156 34.383316 -1.217699 -20.565367 -33.495481 -0.997300 -6.355300 17.818800 4.428047 1.490436 15.869684 5.218508 2.024851 -1.427203 12.368445 -4.473227 -18.842441 4.788400 1.157000 -0.099600 -81.229891 -58.561589 38.364674 15.817131 -26.359127 -3.520230 -0.165530 -0.175318 27.977894 -7.125000 0.000000 0.000000 52.895078 75.364496 25.274615 -102.054243 60.195241 -69.172954 -0.029062 -0.272251 8.473004 7.125000 0.000000 0.000000 
13.704885 26.309524 47.661705 -174.129368 0.657119 -176.680119 -11.295051 -3.376976 -25.454265 4.926382 12.695285 39.168181 2.688963 -12.238636 -32.925944 0.100700 -2.046800 -5.635100 31.866673 14.257537 -19.451621 -4.063871 -11.516588 34.327642 -1.268764 -20.480817 -33.713696 -1.048700 -6.512100 18.277700 4.388004 1.321882 15.803051 5.150993 1.928064 -1.386143 11.891311 -4.603813 -17.575954 4.592300 1.002700 0.314100 -81.868002 -58.227743 39.334696 15.645682 -26.111220 -3.452014 -0.148930 -0.174920 28.087129 -7.125000 0.000000 0.000000 47.940715 77.003579 19.995246 -105.163323 59.636550 -71.936092 -0.039132 -0.255378 9.021433 7.125000 0.000000 0.000000 
